<svg width="80" height="80" viewBox="0 0 80 80" fill="none" xmlns="http://www.w3.org/2000/svg">
<path d="M47.0476 26.0541C47.0476 34.9205 39.8522 42.1081 30.9762 42.1081C22.1002 42.1081 14.9048 34.9205 14.9048 26.0541C14.9048 17.1876 22.1002 10 30.9762 10C39.8522 10 47.0476 17.1876 47.0476 26.0541Z" fill="#226597"/>
<path d="M58.9524 33.1892C58.9524 40.0853 53.3559 45.6757 46.4524 45.6757C39.5488 45.6757 33.9524 40.0853 33.9524 33.1892C33.9524 26.2931 39.5488 20.7027 46.4524 20.7027C53.3559 20.7027 58.9524 26.2931 58.9524 33.1892Z" fill="#226597"/>
<path d="M35.1429 37.9459C35.1429 46.8124 27.9474 54 19.0714 54C10.1954 54 3 46.8124 3 37.9459C3 29.0795 10.1954 21.8919 19.0714 21.8919C27.9474 21.8919 35.1429 29.0795 35.1429 37.9459Z" fill="#226597"/>
<path d="M67.881 54H19.0714L23.2381 32.5946L57.1667 35.5676L67.881 54Z" fill="#226597"/>
<path d="M66.0952 37.9459C66.0952 42.215 62.6308 45.6757 58.3571 45.6757C54.0835 45.6757 50.619 42.215 50.619 37.9459C50.619 33.6769 54.0835 30.2162 58.3571 30.2162C62.6308 30.2162 66.0952 33.6769 66.0952 37.9459Z" fill="#226597"/>
<path d="M78 43.2973C78 49.2082 73.2031 54 67.2857 54C61.3684 54 56.5714 49.2082 56.5714 43.2973C56.5714 37.3864 61.3684 32.5946 67.2857 32.5946C73.2031 32.5946 78 37.3864 78 43.2973Z" fill="#226597"/>
<g filter="url(#filter0_d)">
<path d="M12.0178 7.47487C12.0178 7.47487 28.7276 22.7276 38.9742 32.9742C49.2208 43.2208 64.4736 59.9307 64.4736 59.9307L60.1023 64.302C60.1023 64.302 43.3924 49.0493 33.1458 38.8027C22.8992 28.5561 7.64644 11.8462 7.64644 11.8462L12.0178 7.47487Z" fill="#27323A"/>
<path d="M8.73928 10.7534L10.9249 8.5677L6.55362 4.19638L4.36796 6.38204L8.73928 10.7534Z" fill="#A9B0B2"/>
<path d="M64.4736 59.9307L69.5469 67.9866C69.8165 68.4146 69.3527 68.9264 68.9002 68.7003L60.1023 64.302L64.4736 59.9307Z" fill="#A9B0B2"/>
<rect x="12.0178" y="10.3891" width="26.7886" height="2.06066" transform="rotate(45 12.0178 10.3891)" fill="#A9B0B2"/>
</g>
<defs>
<filter id="filter0_d" x="-1.63204" y="2.19638" width="74.9455" height="74.9455" filterUnits="userSpaceOnUse" color-interpolation-filters="sRGB">
<feFlood flood-opacity="0" result="BackgroundImageFix"/>
<feColorMatrix in="SourceAlpha" type="matrix" values="0 0 0 0 0 0 0 0 0 0 0 0 0 0 0 0 0 0 127 0"/>
<feOffset dx="-2" dy="2"/>
<feGaussianBlur stdDeviation="2"/>
<feColorMatrix type="matrix" values="0 0 0 0 0 0 0 0 0 0 0 0 0 0 0 0 0 0 0.25 0"/>
<feBlend mode="normal" in2="BackgroundImageFix" result="effect1_dropShadow"/>
<feBlend mode="normal" in="SourceGraphic" in2="effect1_dropShadow" result="shape"/>
</filter>
</defs>
</svg>
